<svg width="440.73256835937497px" height="122px" xmlns="http://www.w3.org/2000/svg" viewBox="29.633715820312517 14 440.73256835937497 122" style="background: rgba(0, 0, 0, 0);" preserveAspectRatio="xMidYMid"><defs><filter id="editing-extrusion" x="-100%" y="-100%" width="300%" height="300%"><feFlood result="color1" flood-color="#444"></feFlood><feConvolveMatrix order="8,8" divisor="1" kernelMatrix="1 0 0 0 0 0 0 0 0 1 0 0 0 0 0 0 0 0 1 0 0 0 0 0 0 0 0 1 0 0 0 0 0 0 0 0 1 0 0 0 0 0 0 0 0 1 0 0 0 0 0 0 0 0 1 0 0 0 0 0 0 0 0 1" in="SourceAlpha" result="extrude"></feConvolveMatrix><feComposite in="color1" in2="extrude" result="comp-extrude" operator="in"></feComposite><feOffset dx="4" dy="4" in="comp-extrude" result="offset-extrude"></feOffset><feMerge><feMergeNode in="offset-extrude"></feMergeNode><feMergeNode in="SourceGraphic"></feMergeNode></feMerge></filter></defs><g filter="url(#editing-extrusion)"><g transform="translate(96.46119412779808, 98.68000030517578)"><path d="M30.21-33.92L30.21-33.92L30.21-33.92Q25.02-33.92 21.25-35.65L21.25-35.65L19.20-25.28L31.55-25.28L31.55-25.28Q31.55-21.89 29.86-19.74L29.86-19.74L29.86-19.74Q28.16-17.60 25.09-17.60L25.09-17.60L25.09-17.60Q21.76-17.60 18.69-18.82L18.69-18.82L18.69-18.82Q18.05-19.07 17.98-19.14L17.98-19.14L14.34 0L0.38 0L8.51-42.24L37.06-42.24L37.06-42.24Q37.06-38.34 35.23-36.13L35.23-36.13L35.23-36.13Q33.41-33.92 30.21-33.92ZM54.98-17.98L54.98-17.98L54.98-17.98Q57.28-22.08 57.28-26.24L57.28-26.24L57.28-26.24Q57.28-28.99 55.30-28.99L55.30-28.99L55.30-28.99Q53.76-28.99 52.16-26.37L52.16-26.37L52.16-26.37Q50.50-23.74 49.98-20.35L49.98-20.35L46.66 0L33.41 1.28L39.94-32.64L50.50-33.92L49.34-27.46L49.34-27.46Q52.48-33.92 59.52-33.92L59.52-33.92L59.52-33.92Q63.23-33.92 65.25-32L65.25-32L65.25-32Q67.26-30.08 67.26-26.14L67.26-26.14L67.26-26.14Q67.26-22.21 64.67-19.71L64.67-19.71L64.67-19.71Q62.08-17.22 57.66-17.22L57.66-17.22L57.66-17.22Q55.74-17.22 54.98-17.98ZM82.24 1.28L82.24 1.28L82.24 1.28Q68.16 1.28 68.16-11.97L68.16-11.97L68.16-11.97Q68.16-21.38 73.34-27.46L73.34-27.46L73.34-27.46Q78.85-33.92 88.38-33.92L88.38-33.92L88.38-33.92Q95.30-33.92 98.82-30.72L98.82-30.72L98.82-30.72Q102.34-27.52 102.34-20.80L102.34-20.80L102.34-20.80Q102.34-10.56 96.83-4.61L96.83-4.61L96.83-4.61Q91.46 1.28 82.24 1.28ZM83.90-26.56L83.90-26.56L83.90-26.56Q83.14-24.83 82.53-22.24L82.53-22.24L82.53-22.24Q81.92-19.65 81.15-15.55L81.15-15.55L81.15-15.55Q80.38-11.46 80.38-6.40L80.38-6.40L80.38-6.40Q80.38-4.74 80.93-3.65L80.93-3.65L80.93-3.65Q81.47-2.56 82.94-2.56L82.94-2.56L82.94-2.56Q84.42-2.56 85.34-3.26L85.34-3.26L85.34-3.26Q86.27-3.97 86.98-5.63L86.98-5.63L86.98-5.63Q88.26-8.58 89.28-14.05L89.28-14.05L89.28-14.05Q90.30-19.52 90.40-21.89L90.40-21.89L90.40-21.89Q90.50-24.26 90.50-26.02L90.50-26.02L90.50-26.02Q90.50-27.78 89.98-28.93L89.98-28.93L89.98-28.93Q89.47-30.08 88.03-30.08L88.03-30.08L88.03-30.08Q86.59-30.08 85.63-29.18L85.63-29.18L85.63-29.18Q84.67-28.29 83.90-26.56ZM133.18 1.28L133.18 1.28L133.18 1.28Q125.44 1.28 125.44-4.74L125.44-4.74L125.44-4.74Q125.50-6.40 126.02-9.22L126.02-9.22L127.17-15.10L127.17-15.10Q128.90-23.42 128.90-25.28L128.90-25.28L128.90-25.28Q128.90-28.99 126.72-28.99L126.72-28.99L126.72-28.99Q123.07-28.99 121.15-19.46L121.15-19.46L117.38 0L104.51 1.28L111.17-32.70L121.66-33.92L120.64-27.65L120.64-27.65Q123.65-33.92 132.86-33.92L132.86-33.92L132.86-33.92Q137.34-33.92 139.23-32.03L139.23-32.03L139.23-32.03Q141.12-30.14 141.12-25.92L141.12-25.92L141.12-25.92Q141.12-21.95 139.07-12.67L139.07-12.67L139.07-12.67Q138.11-8.51 138.11-6.94L138.11-6.94L138.11-6.94Q138.11-5.38 138.98-4.48L138.98-4.48L138.98-4.48Q139.84-3.58 141.12-3.46L141.12-3.46L141.12-3.46Q140.48-1.28 138.27 0L138.27 0L138.27 0Q136.06 1.28 133.18 1.28ZM147.26-6.40L147.26-6.40L147.26-6.40Q147.26-8.13 148.16-12.48L148.16-12.48L151.55-29.76L147.78-29.76L148.03-31.68L148.03-31.68Q155.71-33.98 163.14-39.62L163.14-39.62L166.21-39.62L164.67-32.64L169.66-32.64L169.09-29.76L164.16-29.76L160.90-12.48L160.90-12.48Q160.06-8.51 160.06-7.17L160.06-7.17L160.06-7.17Q160.06-4.10 162.75-3.46L162.75-3.46L162.75-3.46Q162.11-1.28 159.81 0L159.81 0L159.81 0Q157.50 1.28 154.24 1.28L154.24 1.28L154.24 1.28Q150.98 1.28 149.12-0.77L149.12-0.77L149.12-0.77Q147.26-2.82 147.26-6.40ZM171.71-10.37L171.71-10.37L171.71-10.37Q169.66-11.84 169.66-14.66L169.66-14.66L169.66-14.66Q169.66-16.19 170.43-17.44L170.43-17.44L170.43-17.44Q171.20-18.69 172.74-18.88L172.74-18.88L185.34-18.88L185.34-18.88Q187.46-18.88 188.10-20.16L188.10-20.16L188.10-20.16Q189.12-19.58 189.57-18.37L189.57-18.37L189.57-18.37Q190.02-17.15 190.02-15.87L190.02-15.87L190.02-15.87Q190.02-14.59 189.02-13.34L189.02-13.34L189.02-13.34Q188.03-12.10 186.56-11.97L186.56-11.97L174.85-11.97L174.85-11.97Q173.50-11.97 172.86-11.55L172.86-11.55L172.86-11.55Q172.22-11.14 171.71-10.37ZM221.76-9.86L221.76-9.86L221.76-9.86Q222.98-8.32 222.98-5.82L222.98-5.82L222.98-5.82Q222.98-2.37 220.42-0.54L220.42-0.54L220.42-0.54Q217.86 1.28 213.82 1.28L213.82 1.28L213.82 1.28Q211.52 1.28 208.00 0.77L208.00 0.77L208.00 0.77Q201.09-0.32 198.98-0.32L198.98-0.32L198.98-0.32Q196.86-0.32 196.03-0.22L196.03-0.22L196.03-0.22Q195.20-0.13 193.86 0L193.86 0L201.73-42.24L229.31-42.24L229.31-42.24Q229.31-38.34 227.42-36.29L227.42-36.29L227.42-36.29Q225.54-34.24 221.82-34.24L221.82-34.24L221.82-34.24Q218.11-34.24 214.34-35.97L214.34-35.97L212.35-24.77L223.74-24.77L223.74-24.77Q223.74-21.38 222.08-19.49L222.08-19.49L222.08-19.49Q220.42-17.60 217.63-17.60L217.63-17.60L217.63-17.60Q214.85-17.60 213.12-18.24L213.12-18.24L213.12-18.24Q211.39-18.88 211.20-19.07L211.20-19.07L208.90-6.98L208.90-6.98Q210.43-6.78 213.31-6.78L213.31-6.78L213.31-6.78Q218.24-6.78 221.76-9.86ZM255.94 1.28L255.94 1.28L255.94 1.28Q248.19 1.28 248.19-4.74L248.19-4.74L248.19-4.74Q248.26-6.40 248.77-9.22L248.77-9.22L249.92-15.10L249.92-15.10Q251.65-23.42 251.65-25.28L251.65-25.28L251.65-25.28Q251.65-28.99 249.47-28.99L249.47-28.99L249.47-28.99Q245.82-28.99 243.90-19.46L243.90-19.46L240.13 0L227.26 1.28L233.92-32.70L244.42-33.92L243.39-27.65L243.39-27.65Q246.40-33.92 255.62-33.92L255.62-33.92L255.62-33.92Q260.10-33.92 261.98-32.03L261.98-32.03L261.98-32.03Q263.87-30.14 263.87-25.92L263.87-25.92L263.87-25.92Q263.87-21.95 261.82-12.67L261.82-12.67L261.82-12.67Q260.86-8.51 260.86-6.94L260.86-6.94L260.86-6.94Q260.86-5.38 261.73-4.48L261.73-4.48L261.73-4.48Q262.59-3.58 263.87-3.46L263.87-3.46L263.87-3.46Q263.23-1.28 261.02 0L261.02 0L261.02 0Q258.82 1.28 255.94 1.28ZM289.15-33.92L289.15-33.92L289.15-33.92Q291.46-33.92 293.25-33.41L293.25-33.41L293.25-33.41Q293.31-33.66 293.44-34.37L293.44-34.37L293.76-36.35L293.76-36.35Q294.02-37.63 294.40-39.74L294.40-39.74L295.42-44.80L308.16-46.08L301.06-8.96L301.06-8.96Q300.99-8.58 300.99-7.94L300.99-7.94L300.99-6.91L300.99-6.91Q300.99-5.50 301.70-4.45L301.70-4.45L301.70-4.45Q302.40-3.39 303.55-3.39L303.55-3.39L303.55-3.39Q302.27-0.38 298.37 0.90L298.37 0.90L298.37 0.90Q297.02 1.28 295.14 1.28L295.14 1.28L295.14 1.28Q293.25 1.28 291.52 0.29L291.52 0.29L291.52 0.29Q289.79-0.70 289.28-2.37L289.28-2.37L289.28-2.37Q288.26-0.70 286.21 0.29L286.21 0.29L286.21 0.29Q284.16 1.28 281.18 1.28L281.18 1.28L281.18 1.28Q278.21 1.28 275.74 0.51L275.74 0.51L275.74 0.51Q273.28-0.26 271.74-1.92L271.74-1.92L271.74-1.92Q268.93-5.18 268.93-12.61L268.93-12.61L268.93-12.61Q268.93-22.21 274.56-28.03L274.56-28.03L274.56-28.03Q280.19-33.92 289.15-33.92ZM288.70-30.08L288.70-30.08L288.70-30.08Q286.34-30.08 285.06-27.52L285.06-27.52L285.06-27.52Q283.78-24.96 282.46-18.62L282.46-18.62L282.46-18.62Q281.15-12.29 281.15-6.59L281.15-6.59L281.15-6.59Q281.15-2.69 283.46-2.69L283.46-2.69L283.46-2.69Q285.50-2.69 286.94-4.74L286.94-4.74L286.94-4.74Q288.38-6.78 288.96-10.18L288.96-10.18L292.42-28.93L292.42-28.93Q291.07-30.08 288.70-30.08Z" fill="#ccc"></path></g></g><style>text {
  font-size: 64px;
  font-family: Arial Black;
  dominant-baseline: central;
  text-anchor: middle;
}</style></svg>