<svg width="440.21035156249997px" height="122px" xmlns="http://www.w3.org/2000/svg" viewBox="29.894824218750017 14 440.21035156249997 122" style="background:#444" preserveAspectRatio="xMidYMid"><defs><filter id="editing-crystal" x="-100%" y="-100%" width="300%" height="300%"><feMorphology operator="dilate" radius="2" in="SourceGraphic" result="border"></feMorphology><feFlood flood-color="#fff" result="black"></feFlood><feMorphology operator="dilate" radius="2" in="SourceGraphic" result="erode"></feMorphology><feGaussianBlur in="erode" stdDeviation="4" result="blur"></feGaussianBlur><feOffset in="blur" dx="2" dy="2" result="offset"></feOffset><feComposite operator="atop" in="offset" in2="black" result="merge"></feComposite><feComposite operator="in" in="merge" in2="SourceGraphic" result="inner-shadow"></feComposite><feGaussianBlur in="SourceGraphic" stdDeviation="2.5" result="shadow1"></feGaussianBlur><feOffset in="shadow1" dx="0" dy="5" result="shadow"></feOffset><feSpecularLighting in="SourceGraphic" result="specular" surfaceScale="1.5" specularConstant="100" specularExponent="10" lighting-color="#fff"><fePointLight x="250" y="-300" z="-400"></fePointLight></feSpecularLighting><feGaussianBlur in="specular" stdDeviation="1" result="specular2"></feGaussianBlur><feComposite operator="in" in="specular2" in2="SourceAlpha" result="specular3"></feComposite><feMerge result="merge"><feMergeNode in="border"></feMergeNode><feMergeNode in="inner-shadow"></feMergeNode><feMergeNode in="specular3"></feMergeNode></feMerge><feComponentTransfer in="merge" result="final"><feFuncA type="linear" slope="0.9" intercept="0"></feFuncA></feComponentTransfer><feMerge><feMergeNode in="shadow"></feMergeNode><feMergeNode in="final"></feMergeNode></feMerge></filter></defs><g filter="url(#editing-crystal)"><g transform="translate(96.65221127867699, 98.68000030517578)"><path d="M30.21-33.92L30.21-33.92L30.21-33.92Q25.02-33.92 21.25-35.65L21.25-35.65L19.20-25.28L31.55-25.28L31.55-25.28Q31.55-21.89 29.86-19.74L29.86-19.74L29.86-19.74Q28.16-17.60 25.09-17.60L25.09-17.60L25.09-17.60Q21.76-17.60 18.69-18.82L18.69-18.82L18.69-18.82Q18.05-19.07 17.98-19.14L17.98-19.14L14.34 0L0.38 0L8.51-42.24L37.06-42.24L37.06-42.24Q37.06-38.34 35.23-36.13L35.23-36.13L35.23-36.13Q33.41-33.92 30.21-33.92ZM54.98-17.98L54.98-17.98L54.98-17.98Q57.28-22.08 57.28-26.24L57.28-26.24L57.28-26.24Q57.28-28.99 55.30-28.99L55.30-28.99L55.30-28.99Q53.76-28.99 52.16-26.37L52.16-26.37L52.16-26.37Q50.50-23.74 49.98-20.35L49.98-20.35L46.66 0L33.41 1.28L39.94-32.64L50.50-33.92L49.34-27.46L49.34-27.46Q52.48-33.92 59.52-33.92L59.52-33.92L59.52-33.92Q63.23-33.92 65.25-32L65.25-32L65.25-32Q67.26-30.08 67.26-26.14L67.26-26.14L67.26-26.14Q67.26-22.21 64.67-19.71L64.67-19.71L64.67-19.71Q62.08-17.22 57.66-17.22L57.66-17.22L57.66-17.22Q55.74-17.22 54.98-17.98ZM82.24 1.28L82.24 1.28L82.24 1.28Q68.16 1.28 68.16-11.97L68.16-11.97L68.16-11.97Q68.16-21.38 73.34-27.46L73.34-27.46L73.34-27.46Q78.85-33.92 88.38-33.92L88.38-33.92L88.38-33.92Q95.30-33.92 98.82-30.72L98.82-30.72L98.82-30.72Q102.34-27.52 102.34-20.80L102.34-20.80L102.34-20.80Q102.34-10.56 96.83-4.61L96.83-4.61L96.83-4.61Q91.46 1.28 82.24 1.28ZM83.90-26.56L83.90-26.56L83.90-26.56Q83.14-24.83 82.53-22.24L82.53-22.24L82.53-22.24Q81.92-19.65 81.15-15.55L81.15-15.55L81.15-15.55Q80.38-11.46 80.38-6.40L80.38-6.40L80.38-6.40Q80.38-4.74 80.93-3.65L80.93-3.65L80.93-3.65Q81.47-2.56 82.94-2.56L82.94-2.56L82.94-2.56Q84.42-2.56 85.34-3.26L85.34-3.26L85.34-3.26Q86.27-3.97 86.98-5.63L86.98-5.63L86.98-5.63Q88.26-8.58 89.28-14.05L89.28-14.05L89.28-14.05Q90.30-19.52 90.40-21.89L90.40-21.89L90.40-21.89Q90.50-24.26 90.50-26.02L90.50-26.02L90.50-26.02Q90.50-27.78 89.98-28.93L89.98-28.93L89.98-28.93Q89.47-30.08 88.03-30.08L88.03-30.08L88.03-30.08Q86.59-30.08 85.63-29.18L85.63-29.18L85.63-29.18Q84.67-28.29 83.90-26.56ZM133.18 1.28L133.18 1.28L133.18 1.28Q125.44 1.28 125.44-4.74L125.44-4.74L125.44-4.74Q125.50-6.40 126.02-9.22L126.02-9.22L127.17-15.10L127.17-15.10Q128.90-23.42 128.90-25.28L128.90-25.28L128.90-25.28Q128.90-28.99 126.72-28.99L126.72-28.99L126.72-28.99Q123.07-28.99 121.15-19.46L121.15-19.46L117.38 0L104.51 1.28L111.17-32.70L121.66-33.92L120.64-27.65L120.64-27.65Q123.65-33.92 132.86-33.92L132.86-33.92L132.86-33.92Q137.34-33.92 139.23-32.03L139.23-32.03L139.23-32.03Q141.12-30.14 141.12-25.92L141.12-25.92L141.12-25.92Q141.12-21.95 139.07-12.67L139.07-12.67L139.07-12.67Q138.11-8.51 138.11-6.94L138.11-6.94L138.11-6.94Q138.11-5.38 138.98-4.48L138.98-4.48L138.98-4.48Q139.84-3.58 141.12-3.46L141.12-3.46L141.12-3.46Q140.48-1.28 138.27 0L138.27 0L138.27 0Q136.06 1.28 133.18 1.28ZM147.26-6.40L147.26-6.40L147.26-6.40Q147.26-8.13 148.16-12.48L148.16-12.48L151.55-29.76L147.78-29.76L148.03-31.68L148.03-31.68Q155.71-33.98 163.14-39.62L163.14-39.62L166.21-39.62L164.67-32.64L169.66-32.64L169.09-29.76L164.16-29.76L160.90-12.48L160.90-12.48Q160.06-8.51 160.06-7.17L160.06-7.17L160.06-7.17Q160.06-4.10 162.75-3.46L162.75-3.46L162.75-3.46Q162.11-1.28 159.81 0L159.81 0L159.81 0Q157.50 1.28 154.24 1.28L154.24 1.28L154.24 1.28Q150.98 1.28 149.12-0.77L149.12-0.77L149.12-0.77Q147.26-2.82 147.26-6.40ZM171.71-10.37L171.71-10.37L171.71-10.37Q169.66-11.84 169.66-14.66L169.66-14.66L169.66-14.66Q169.66-16.19 170.43-17.44L170.43-17.44L170.43-17.44Q171.20-18.69 172.74-18.88L172.74-18.88L185.34-18.88L185.34-18.88Q187.46-18.88 188.10-20.16L188.10-20.16L188.10-20.16Q189.12-19.58 189.57-18.37L189.57-18.37L189.57-18.37Q190.02-17.15 190.02-15.87L190.02-15.87L190.02-15.87Q190.02-14.59 189.02-13.34L189.02-13.34L189.02-13.34Q188.03-12.10 186.56-11.97L186.56-11.97L174.85-11.97L174.85-11.97Q173.50-11.97 172.86-11.55L172.86-11.55L172.86-11.55Q172.22-11.14 171.71-10.37ZM220.35-10.82L220.35-10.82L220.35-10.82Q221.95-9.73 221.95-7.33L221.95-7.33L221.95-7.33Q221.95-4.93 220.74-3.39L220.74-3.39L220.74-3.39Q219.52-1.86 217.54-0.83L217.54-0.83L217.54-0.83Q213.44 1.28 209.02 1.28L209.02 1.28L209.02 1.28Q204.61 1.28 202.02 0.32L202.02 0.32L202.02 0.32Q199.42-0.64 197.70-2.43L197.70-2.43L197.70-2.43Q194.30-5.82 194.30-12.03L194.30-12.03L194.30-12.03Q194.30-21.70 199.55-27.58L199.55-27.58L199.55-27.58Q205.18-33.92 214.98-33.92L214.98-33.92L214.98-33.92Q221.06-33.92 224.06-31.36L224.06-31.36L224.06-31.36Q226.30-29.44 226.30-26.30L226.30-26.30L226.30-26.30Q226.30-15.04 206.85-15.04L206.85-15.04L206.85-15.04Q206.59-13.38 206.59-11.97L206.59-11.97L206.59-11.97Q206.59-9.02 207.90-7.90L207.90-7.90L207.90-7.90Q209.22-6.78 211.65-6.78L211.65-6.78L211.65-6.78Q214.08-6.78 216.67-7.90L216.67-7.90L216.67-7.90Q219.26-9.02 220.35-10.82ZM207.30-17.79L207.30-17.79L207.30-17.79Q211.84-17.79 214.46-20.61L214.46-20.61L214.46-20.61Q217.09-23.30 217.09-27.58L217.09-27.58L217.09-27.58Q217.09-29.06 216.54-29.86L216.54-29.86L216.54-29.86Q216.00-30.66 214.91-30.66L214.91-30.66L214.91-30.66Q213.82-30.66 212.90-30.24L212.90-30.24L212.90-30.24Q211.97-29.82 211.01-28.42L211.01-28.42L211.01-28.42Q208.64-25.22 207.30-17.79ZM255.55 1.28L255.55 1.28L255.55 1.28Q247.81 1.28 247.81-4.74L247.81-4.74L247.81-4.74Q247.87-6.40 248.38-9.22L248.38-9.22L249.54-15.10L249.54-15.10Q251.26-23.42 251.26-25.28L251.26-25.28L251.26-25.28Q251.26-28.99 249.09-28.99L249.09-28.99L249.09-28.99Q245.44-28.99 243.52-19.46L243.52-19.46L239.74 0L226.88 1.28L233.54-32.70L244.03-33.92L243.01-27.65L243.01-27.65Q246.02-33.92 255.23-33.92L255.23-33.92L255.23-33.92Q259.71-33.92 261.60-32.03L261.60-32.03L261.60-32.03Q263.49-30.14 263.49-25.92L263.49-25.92L263.49-25.92Q263.49-21.95 261.44-12.67L261.44-12.67L261.44-12.67Q260.48-8.51 260.48-6.94L260.48-6.94L260.48-6.94Q260.48-5.38 261.34-4.48L261.34-4.48L261.34-4.48Q262.21-3.58 263.49-3.46L263.49-3.46L263.49-3.46Q262.85-1.28 260.64 0L260.64 0L260.64 0Q258.43 1.28 255.55 1.28ZM288.77-33.92L288.77-33.92L288.77-33.92Q291.07-33.92 292.86-33.41L292.86-33.41L292.86-33.41Q292.93-33.66 293.06-34.37L293.06-34.37L293.38-36.35L293.38-36.35Q293.63-37.63 294.02-39.74L294.02-39.74L295.04-44.80L307.78-46.08L300.67-8.96L300.67-8.96Q300.61-8.58 300.61-7.94L300.61-7.94L300.61-6.91L300.61-6.91Q300.61-5.50 301.31-4.45L301.31-4.45L301.31-4.45Q302.02-3.39 303.17-3.39L303.17-3.39L303.17-3.39Q301.89-0.38 297.98 0.90L297.98 0.90L297.98 0.90Q296.64 1.28 294.75 1.28L294.75 1.28L294.75 1.28Q292.86 1.28 291.14 0.29L291.14 0.29L291.14 0.29Q289.41-0.70 288.90-2.37L288.90-2.37L288.90-2.37Q287.87-0.70 285.82 0.29L285.82 0.29L285.82 0.29Q283.78 1.28 280.80 1.28L280.80 1.28L280.80 1.28Q277.82 1.28 275.36 0.51L275.36 0.51L275.36 0.51Q272.90-0.26 271.36-1.92L271.36-1.92L271.36-1.92Q268.54-5.18 268.54-12.61L268.54-12.61L268.54-12.61Q268.54-22.21 274.18-28.03L274.18-28.03L274.18-28.03Q279.81-33.92 288.77-33.92ZM288.32-30.08L288.32-30.08L288.32-30.08Q285.95-30.08 284.67-27.52L284.67-27.52L284.67-27.52Q283.39-24.96 282.08-18.62L282.08-18.62L282.08-18.62Q280.77-12.29 280.77-6.59L280.77-6.59L280.77-6.59Q280.77-2.69 283.07-2.69L283.07-2.69L283.07-2.69Q285.12-2.69 286.56-4.74L286.56-4.74L286.56-4.74Q288-6.78 288.58-10.18L288.58-10.18L292.03-28.93L292.03-28.93Q290.69-30.08 288.32-30.08Z" fill="#000000" stroke="#88e0eb" stroke-width="1.5"></path></g></g><style>text {
  font-size: 64px;
  font-family: Arial Black;
  dominant-baseline: central;
  text-anchor: middle;
}</style></svg>